<svg xmlns="http://www.w3.org/2000/svg" width="1400" height="620" viewBox="0 0 1400 620" role="img" aria-labelledby="title desc">
  <title id="title">LuArch hero preview</title>
  <desc id="desc">Stylized low-poly tactical buildings generated by the Blender addon.</desc>
  <rect width="1400" height="620" fill="#20242a"/>
  <rect x="0" y="480" width="1400" height="140" fill="#2b3036"/>
  <g transform="translate(205 140)">
    <rect x="0" y="160" width="230" height="250" fill="#8a7a66"/>
    <rect x="0" y="118" width="230" height="44" fill="#5e6269"/>
    <rect x="18" y="178" width="58" height="48" fill="#b7c1c7"/>
    <rect x="118" y="178" width="58" height="48" fill="#b7c1c7"/>
    <rect x="18" y="260" width="58" height="48" fill="#2f383f"/>
    <rect x="118" y="260" width="58" height="48" fill="#b7c1c7"/>
    <rect x="86" y="342" width="58" height="68" fill="#4d3428"/>
    <rect x="-18" y="410" width="266" height="18" fill="#3b4148"/>
  </g>
  <g transform="translate(500 90)">
    <rect x="0" y="120" width="290" height="360" fill="#d3d0c8"/>
    <rect x="-16" y="480" width="322" height="20" fill="#3b4148"/>
    <rect x="0" y="82" width="290" height="38" fill="#6b7178"/>
    <rect x="32" y="148" width="75" height="44" fill="#c1d0d8"/>
    <rect x="180" y="148" width="75" height="44" fill="#2f383f"/>
    <rect x="32" y="236" width="75" height="44" fill="#c1d0d8"/>
    <rect x="180" y="236" width="75" height="44" fill="#c1d0d8"/>
    <rect x="32" y="324" width="75" height="44" fill="#2f383f"/>
    <rect x="180" y="324" width="75" height="44" fill="#c1d0d8"/>
    <rect x="126" y="404" width="56" height="76" fill="#6c4a32"/>
    <rect x="276" y="165" width="60" height="18" fill="#9b7c55"/>
    <rect x="276" y="253" width="60" height="18" fill="#9b7c55"/>
  </g>
  <g transform="translate(850 185)">
    <rect x="0" y="155" width="310" height="205" fill="#9b704f"/>
    <rect x="0" y="115" width="310" height="40" fill="#5b6168"/>
    <rect x="20" y="175" width="86" height="60" fill="#2f383f"/>
    <rect x="154" y="175" width="86" height="60" fill="#c1d0d8"/>
    <rect x="20" y="270" width="86" height="60" fill="#c1d0d8"/>
    <rect x="154" y="270" width="86" height="60" fill="#c1d0d8"/>
    <rect x="260" y="250" width="52" height="110" fill="#6c4a32"/>
    <rect x="-18" y="360" width="346" height="18" fill="#3b4148"/>
  </g>
  <text x="70" y="82" fill="#f3efe7" font-family="Inter, Arial, sans-serif" font-size="46" font-weight="700">LuArch</text>
  <text x="72" y="124" fill="#c5cbd1" font-family="Inter, Arial, sans-serif" font-size="24">Procedural low-poly tactical buildings for Blender and game-engine workflows</text>
</svg>

